name C:\Users\r0593348\3dpredictsim\Results\Batchsim_tmt_linear\Pog_s1_tmt_aCst_d00_k1000_ig24_act.mot
datacolumns 128
datarows 4
range 1.26257633 1.30045362
endheader
time	pelvis_tilt	pelvis_list	pelvis_rotation	pelvis_tx	pelvis_ty	pelvis_tz	hip_flexion_l	hip_adduction_l	hip_rotation_l	hip_flexion_r	hip_adduction_r	hip_rotation_r	knee_angle_l	knee_angle_r	ankle_angle_l	ankle_angle_r	subtalar_angle_l	subtalar_angle_r	tmt_angle_l	tmt_angle_r	mtp_angle_l	mtp_angle_r	lumbar_extension	lumbar_bending	lumbar_rotation	arm_flex_l	arm_add_l	arm_rot_l	arm_flex_r	arm_add_r	arm_rot_r	elbow_flex_l	elbow_flex_r	pro_sup_l	pro_sup_r	glut_med1_l/activation	glut_med2_l/activation	glut_med3_l/activation	glut_min1_l/activation	glut_min2_l/activation	glut_min3_l/activation	semimem_l/activation	semiten_l/activation	bifemlh_l/activation	bifemsh_l/activation	sar_l/activation	add_long_l/activation	add_brev_l/activation	add_mag1_l/activation	add_mag2_l/activation	add_mag3_l/activation	tfl_l/activation	pect_l/activation	grac_l/activation	glut_max1_l/activation	glut_max2_l/activation	glut_max3_l/activation	iliacus_l/activation	psoas_l/activation	quad_fem_l/activation	gem_l/activation	peri_l/activation	rect_fem_l/activation	vas_med_l/activation	vas_int_l/activation	vas_lat_l/activation	med_gas_l/activation	lat_gas_l/activation	soleus_l/activation	tib_post_l/activation	flex_dig_l/activation	flex_hal_l/activation	tib_ant_l/activation	per_brev_l/activation	per_long_l/activation	per_tert_l/activation	ext_dig_l/activation	ext_hal_l/activation	ercspn_l/activation	intobl_l/activation	extobl_l/activation	glut_med1_r/activation	glut_med2_r/activation	glut_med3_r/activation	glut_min1_r/activation	glut_min2_r/activation	glut_min3_r/activation	semimem_r/activation	semiten_r/activation	bifemlh_r/activation	bifemsh_r/activation	sar_r/activation	add_long_r/activation	add_brev_r/activation	add_mag1_r/activation	add_mag2_r/activation	add_mag3_r/activation	tfl_r/activation	pect_r/activation	grac_r/activation	glut_max1_r/activation	glut_max2_r/activation	glut_max3_r/activation	iliacus_r/activation	psoas_r/activation	quad_fem_r/activation	gem_r/activation	peri_r/activation	rect_fem_r/activation	vas_med_r/activation	vas_int_r/activation	vas_lat_r/activation	med_gas_r/activation	lat_gas_r/activation	soleus_r/activation	tib_post_r/activation	flex_dig_r/activation	flex_hal_r/activation	tib_ant_r/activation	per_brev_r/activation	per_long_r/activation	per_tert_r/activation	ext_dig_r/activation	ext_hal_r/activation	ercspn_r/activation	intobl_r/activation	extobl_r/activation	
          1.26257633	         -2.92897145	         -1.40078378	          8.75927036	          1.57822042	          0.85511115	         -0.00277949	        -16.72725280	         -2.60895057	          8.66529144	         33.51284267	          0.62323906	         -0.50556391	        -15.72703751	        -15.46765880	         -9.14272017	          9.60788229	         14.17640276	         -1.22569259	          1.00342761	          0.02271223	         30.32480550	         -0.08726965	         -0.70615506	         -1.08729264	         -3.42711311	          3.43722892	        -13.53304539	         18.11061180	        -11.63302677	        -13.57937918	          7.89145807	         47.53374055	         18.09148312	         86.51662706	         86.51662706	          0.14651159	          0.07709387	          0.08143155	          0.20941504	          0.13000109	          0.08234992	          0.05001036	          0.05000127	          0.05000121	          0.05000360	          0.08830388	          0.05000661	          0.05000116	          0.05000127	          0.05000259	          0.05000225	          0.17505429	          0.05000808	          0.05000271	          0.05002741	          0.05001126	          0.05000471	          0.42448906	          0.60153656	          0.05000189	          0.05000678	          0.07325685	          0.24551077	          0.09744582	          0.08403303	          0.08757857	          0.15670430	          0.23268404	          0.05867638	          0.16236682	          0.19682277	          0.21413648	          0.05000016	          0.35103077	          0.33726819	          0.05000053	          0.22231367	          0.05000074	          0.05000005	          0.05000018	          0.05000032	          0.05000258	          0.05000103	          0.05000498	          0.05000103	          0.05000128	          0.05000334	          0.17749600	          0.06052472	          0.13825080	          0.05826977	          0.05001188	          0.06057421	          0.09097123	          0.20708872	          0.15920072	          0.12321368	          0.05002165	          0.05978295	          0.06054918	          0.05000271	          0.06389031	          0.09931761	          0.06143098	          0.06101603	          0.14883086	          0.05000679	          0.05000254	          0.05000127	          0.07571862	          0.08970972	          0.07479087	          0.06052156	          0.06052167	          0.06052148	          0.05000327	          0.05000404	          0.06051796	          0.49257736	          0.33765397	          0.20929416	          0.08744002	          0.56937304	          0.30019406	          0.05000125	          0.14165957	          0.11304026	
          1.27520210	         -2.92946957	         -1.35167199	          8.96498817	          1.59876535	          0.85361132	         -0.00243394	        -16.98725743	         -2.87172752	          8.36374430	         32.82283266	          0.89798897	         -0.30100965	        -16.91509821	        -15.50072974	        -12.19887930	          8.96061444	         14.67702303	         -1.63412336	          0.90896236	          0.04005779	         31.88369243	         -0.08187061	         -0.43720089	         -0.92113074	         -3.54277337	          2.88564915	        -13.60959349	         18.36631344	        -13.13977604	        -13.56476480	          7.71580853	         48.89410118	         18.06808517	         86.51662706	         86.51662706	          0.12104138	          0.06369190	          0.06727605	          0.17300942	          0.10740121	          0.06803458	          0.05000831	          0.05000091	          0.05000118	          0.05000206	          0.07295414	          0.14709218	          0.14376510	          0.10752470	          0.05003527	          0.05000542	          0.14462194	          0.08867650	          0.05538872	          0.05000898	          0.05000618	          0.05000561	          0.35069317	          0.49696168	          0.07325250	          0.07320822	          0.06052396	          0.20282954	          0.09895108	          0.12989951	          0.10126468	          0.12946176	          0.19223268	          0.05000006	          0.13413988	          0.16260593	          0.17690963	          0.23436713	          0.38340685	          0.32203109	          0.48417696	          0.40835891	          0.18380010	          0.05407497	          0.06927201	          0.05784285	          0.08190638	          0.08433395	          0.05000104	          0.06052988	          0.06052103	          0.05001902	          0.14663947	          0.05000315	          0.11421669	          0.05000119	          0.05000780	          0.05004446	          0.07515675	          0.21768753	          0.20957671	          0.14332948	          0.05000210	          0.05000552	          0.05002379	          0.06052124	          0.10100184	          0.12249769	          0.05075214	          0.05040928	          0.38102739	          0.06052356	          0.07042800	          0.07325604	          0.22099864	          0.22359927	          0.19676693	          0.05000010	          0.05000021	          0.05000002	          0.05000045	          0.07325335	          0.05000345	          0.67660350	          0.39012201	          0.24014057	          0.50450540	          0.65368467	          0.45729718	          0.05000008	          0.11703255	          0.09338858	
          1.28782786	         -2.92436776	         -1.30288464	          9.13050987	          1.61950208	          0.85176664	         -0.00210646	        -17.03491661	         -3.08840921	          8.05577637	         32.00778661	          1.16753370	         -0.03322567	        -18.50467706	        -16.19520898	        -14.96592912	          8.17075867	         15.13254358	         -2.06077400	          0.73050791	         -0.03808236	         32.47879521	         -0.15541948	         -0.16409271	         -0.73873753	         -3.63928567	          2.26845914	        -13.69671950	         18.54898183	        -14.61626135	        -13.56033221	          7.63008796	         50.22997823	         17.99957066	         86.51662706	         86.51662706	          0.09999950	          0.05262006	          0.05558109	          0.14293288	          0.08873025	          0.05620760	          0.06273331	          0.06052130	          0.06052219	          0.05000125	          0.06027249	          0.16407302	          0.24986472	          0.11906082	          0.06173709	          0.06669359	          0.11948015	          0.07327115	          0.06052289	          0.05206279	          0.06051343	          0.06052369	          0.28972648	          0.41346245	          0.06052231	          0.06048815	          0.05000232	          0.16756829	          0.08174909	          0.10731713	          0.08366034	          0.10695527	          0.15881367	          0.05000080	          0.11082012	          0.13433760	          0.14615457	          0.38116782	          0.46014021	          0.32891854	          0.71992210	          0.51814599	          0.33318457	          0.07954329	          0.05722943	          0.05000044	          0.24591486	          0.27082409	          0.44060761	          0.05000798	          0.05000153	          0.34087849	          0.12788132	          0.05000285	          0.11192683	          0.05000079	          0.05000210	          0.07325855	          0.18705297	          0.24838930	          0.22472095	          0.17084110	          0.05000126	          0.06079045	          0.13025354	          0.05000076	          0.18736391	          0.17928848	          0.05771649	          0.05000307	          0.31478763	          0.05000368	          0.28896356	          0.06052079	          0.18257906	          0.18472767	          0.16255994	          0.06052134	          0.06052137	          0.06052145	          0.06052118	          0.06052047	          0.06052152	          0.56114278	          0.37020574	          0.19839374	          0.42186169	          0.67365136	          0.45960548	          0.05512604	          0.09668775	          0.07715329	
          1.30045362	         -2.91660299	         -1.26019513	          9.25073358	          1.64005182	          0.84969291	         -0.00177702	        -16.82671967	         -3.26254280	          7.75657052	         31.12317897	          1.43683618	          0.26372132	        -20.55868012	        -17.02061611	        -17.05546881	          7.57880753	         15.50800217	         -2.50342595	          0.52691200	         -0.02212095	         31.22568532	         -0.15953032	          0.08250867	         -0.53614513	         -3.71535079	          1.64898710	        -13.77920269	         18.65822418	        -15.97192111	        -13.56890047	          7.69563233	         51.49468322	         17.82091181	         86.51662706	         86.51662706	          0.18485884	          0.05000089	          0.05000034	          0.15856291	          0.07330538	          0.05000277	          0.09757099	          0.05000095	          0.05000163	          0.05000107	          0.06015315	          0.13555072	          0.20642735	          0.09836335	          0.05100585	          0.05510014	          0.09870934	          0.06053773	          0.05000317	          0.05000502	          0.05000364	          0.05000344	          0.23935873	          0.40756862	          0.05000097	          0.05000240	          0.05000139	          0.13843711	          0.06907517	          0.08867085	          0.08867088	          0.08836148	          0.13120448	          0.05000039	          0.09155444	          0.11098372	          0.12074623	          0.34917777	          0.38015086	          0.28190014	          0.66175933	          0.70999354	          0.27526174	          0.12515211	          0.05000004	          0.05000020	          0.32903318	          0.42801650	          0.52512366	          0.13450735	          0.22792382	          0.28162140	          0.10564962	          0.10263328	          0.09246894	          0.07323237	          0.05000249	          0.06052293	          0.15453452	          0.20520937	          0.23600469	          0.18908489	          0.05000086	          0.05022339	          0.10761053	          0.28739412	          0.25421787	          0.21696725	          0.05000025	          0.05000028	          0.26006503	          0.07018233	          0.23872989	          0.05000013	          0.15084197	          0.24479924	          0.19760659	          0.05000006	          0.05000013	          0.05000002	          0.05000003	          0.05000081	          0.05000060	          0.73481863	          0.41850532	          0.20568847	          0.68608720	          0.77763388	          0.56865641	          0.07017867	          0.08037112	          0.06374045	
